<svg xmlns="http://www.w3.org/2000/svg" xml:space="preserve"  viewBox="0 0 238.11 155.91">
  <path d="M118.85 156.4c-34.94 0-69.88-.04-104.81.04-6.18.01-10.91-2.28-13.63-7.79-1.06-2.14-1.5-4.78-1.51-7.2-.09-42.31 0-84.62-.12-126.94C-1.24 5.47 5.77-.55 14.04-.53c69.88.16 139.75.17 209.63 0 8.43-.02 15.44 6.01 15.4 15.42-.17 42.06-.17 84.13 0 126.19.04 9.41-6.97 15.48-15.4 15.42-34.94-.24-69.88-.1-104.82-.1zm.06-9.16h103.84c5.56 0 6.99-1.41 6.99-6.89V15.63c0-5.48-1.43-6.9-6.99-6.9H15.07c-5.54 0-6.99 1.43-6.99 6.89v124.72c0 5.46 1.45 6.89 6.98 6.9h103.85z"/>
  <path d="m19.7 26.59 4.55-7.88c.83.43 1.62.8 2.38 1.23 29.38 16.78 58.78 33.53 88.12 50.39 3.05 1.75 5.52 1.68 8.54-.06 29.48-16.95 59.02-33.78 88.55-50.64.5-.29 1.02-.55 1.82-.98 1.49 2.56 2.97 5.1 4.6 7.89-.97.58-1.87 1.14-2.78 1.66-28.95 16.54-57.95 32.99-86.81 49.68-6.69 3.87-12.65 3.91-19.39.01-28.49-16.52-57.14-32.75-85.73-49.08-1.21-.7-2.42-1.4-3.85-2.22zM94.51 80.58c1.62 2.85 3.05 5.36 4.58 8.03-24.99 14.27-49.8 28.44-74.87 42.75-1.5-2.6-2.97-5.15-4.62-8 24.95-14.25 49.81-28.44 74.91-42.78zM218.16 123.34c-1.61 2.8-3.08 5.36-4.6 8.01-24.24-13.84-48.33-27.59-72.64-41.47 1.53-2.69 2.99-5.25 4.57-8.03 24.23 13.84 48.35 27.61 72.67 41.49z"/>
</svg>